<svg width="142" height="30" fill="none" xmlns="http://www.w3.org/2000/svg"><path d="m50.349 17.279-.838 2.372h-.07a16.836 16.836 0 0 0-.814-2.326l-4.489-11.28h-4.396v17.979h2.908V12.929l-.024-2.466c-.023-.488-.07-.86-.093-1.14h.07c.14.699.303 1.21.419 1.536l5.396 13.118h2.047l5.35-13.234c.116-.303.232-.908.348-1.42h.07l-.14 3.234v11.397h3.094V5.998h-4.233l-4.605 11.28Zm11.769-6.21h3.024v12.885h-3.024V11.068Zm1.535-5.443c-.512 0-.93.186-1.28.511a1.65 1.65 0 0 0-.534 1.256 1.633 1.633 0 0 0 .535 1.233c.349.326.767.488 1.279.488.512 0 .954-.186 1.28-.488a1.635 1.635 0 0 0 .534-1.233c0-.488-.186-.907-.535-1.256-.302-.325-.744-.511-1.279-.511Zm12.211 5.326a8.433 8.433 0 0 0-1.698-.186c-1.372 0-2.628.302-3.675.907-1.046.605-1.884 1.442-2.419 2.489-.558 1.07-.837 2.303-.837 3.721 0 1.233.28 2.326.814 3.326.535.977 1.28 1.768 2.28 2.303.953.535 2.07.814 3.326.814 1.442 0 2.674-.302 3.651-.86l.024-.024v-2.79l-.117.092a5.197 5.197 0 0 1-1.465.768c-.535.186-1.023.279-1.442.279-1.21 0-2.163-.349-2.838-1.117-.698-.744-1.046-1.767-1.046-3.046 0-1.326.349-2.373 1.07-3.14.72-.768 1.674-1.164 2.837-1.164.977 0 1.977.326 2.884.977l.117.093V11.44l-.024-.023c-.395-.163-.837-.349-1.442-.465Zm9.979-.093a3.19 3.19 0 0 0-2.047.721c-.512.419-.86 1.023-1.163 1.744h-.023v-2.256h-3.024v12.886h3.024v-6.582c0-1.117.232-2.047.744-2.722.512-.698 1.163-1.046 1.954-1.046.279 0 .558.07.907.116.325.093.558.186.72.302l.117.093v-3.024l-.07-.023c-.209-.14-.628-.21-1.14-.21Zm8.234-.07c-2.117 0-3.815.628-5.001 1.86-1.21 1.234-1.791 2.932-1.791 5.072 0 2 .605 3.628 1.767 4.814 1.163 1.163 2.745 1.768 4.722 1.768 2.07 0 3.722-.628 4.908-1.884 1.21-1.256 1.791-2.93 1.791-5 0-2.048-.558-3.676-1.698-4.862-1.093-1.186-2.698-1.768-4.698-1.768Zm2.419 9.909c-.559.72-1.442 1.07-2.536 1.07-1.093 0-1.977-.35-2.605-1.117-.628-.72-.93-1.767-.93-3.093 0-1.373.325-2.42.93-3.164.628-.744 1.489-1.116 2.582-1.116 1.07 0 1.907.349 2.512 1.07.605.72.93 1.768.93 3.14-.046 1.396-.302 2.489-.883 3.21Zm10.722-4.28c-.953-.395-1.558-.698-1.837-.954-.233-.232-.349-.558-.349-.977 0-.348.139-.697.488-.93.349-.233.745-.349 1.326-.349.512 0 1.047.093 1.558.233.512.14.977.349 1.35.628l.116.093v-2.838l-.07-.023a8.393 8.393 0 0 0-1.372-.396 9.337 9.337 0 0 0-1.489-.14c-1.442 0-2.628.35-3.559 1.117-.93.721-1.372 1.698-1.372 2.838 0 .605.093 1.14.302 1.582.21.442.512.86.931 1.21.419.325 1.023.697 1.861 1.046.697.302 1.232.535 1.558.72.326.187.535.396.698.56.116.185.186.418.186.72 0 .86-.651 1.28-1.977 1.28-.512 0-1.047-.094-1.675-.303a6.482 6.482 0 0 1-1.698-.86l-.116-.094v2.954l.07.024c.442.209.977.348 1.628.511.651.117 1.233.21 1.744.21 1.559 0 2.838-.35 3.745-1.117.93-.744 1.419-1.698 1.419-2.93 0-.861-.233-1.629-.744-2.21a9.434 9.434 0 0 0-2.722-1.605Zm11.444-5.629c-2.117 0-3.815.628-5.001 1.86-1.186 1.234-1.791 2.932-1.791 5.072 0 2 .605 3.628 1.768 4.814 1.163 1.163 2.745 1.768 4.722 1.768 2.07 0 3.721-.628 4.907-1.884 1.21-1.256 1.791-2.93 1.791-5 0-2.048-.558-3.676-1.698-4.862-1.093-1.186-2.698-1.768-4.698-1.768Zm2.396 9.909c-.559.72-1.442 1.07-2.536 1.07-1.116 0-1.977-.35-2.605-1.117-.628-.72-.93-1.767-.93-3.093 0-1.373.326-2.42.93-3.164.628-.744 1.489-1.116 2.582-1.116 1.047 0 1.907.349 2.512 1.07.605.72.931 1.768.931 3.14 0 1.396-.303 2.489-.884 3.21Zm20.166-7.141v-2.489h-3.047V7.254l-.093.023-2.884.86-.07.024v2.907h-4.559V9.44c0-.744.186-1.326.512-1.698.325-.372.814-.558 1.418-.558.419 0 .861.093 1.349.302l.117.07V4.928l-.07-.024c-.419-.14-.977-.232-1.698-.232-.907 0-1.698.21-2.419.558a4.031 4.031 0 0 0-1.651 1.652c-.396.697-.605 1.488-.605 2.395v1.791h-2.117v2.466h2.117v10.42h3.047V13.557h4.559v6.629c0 2.721 1.279 4.094 3.838 4.094.418 0 .86-.07 1.279-.14.442-.093.767-.21.953-.302l.024-.024v-2.488l-.117.093c-.186.116-.348.21-.628.279-.232.07-.442.093-.604.093-.605 0-1.024-.14-1.326-.489-.279-.325-.419-.86-.419-1.651v-6.094h3.094ZM.758 0h14.258v14.258H.758V0ZM16.508 0h14.258v14.258H16.508V0ZM.758 15.742h14.258V30H.758V15.742ZM16.508 15.742h14.258V30H16.508V15.742Z" fill="#1E1E1E"/></svg>