<svg width="66" height="78" fill="none" xmlns="http://www.w3.org/2000/svg"><path d="M33 .25A32.538 32.538 0 0 0 .5 32.75 32.168 32.168 0 0 0 6.833 52l2.01-1.485A29.649 29.649 0 0 1 3.049 34h12.076c.07 4.827.776 9.623 2.096 14.266l2.398-.707A52.57 52.57 0 0 1 17.625 34H31.75v11.25h2.5V34h14.125a52.568 52.568 0 0 1-2 13.559l2.398.707A55.087 55.087 0 0 0 50.875 34h12.081a29.65 29.65 0 0 1-5.793 16.52L59.168 52A32.167 32.167 0 0 0 65.5 32.75 32.537 32.537 0 0 0 33 .25ZM15.104 31.5H3.03a29.825 29.825 0 0 1 5.2-15.654 53.077 53.077 0 0 0 8.7 2.326A55.569 55.569 0 0 0 15.103 31.5ZM9.796 13.758a30.086 30.086 0 0 1 14.762-9.79 28.686 28.686 0 0 0-6.91 11.797 52.705 52.705 0 0 1-7.852-2.008ZM31.75 31.5H17.604c.071-4.362.68-8.7 1.814-12.913 4.084.603 8.204.925 12.332.962V31.5Zm0-14.451a87.999 87.999 0 0 1-11.586-.875C22.71 8.724 26.919 3.616 31.75 2.858v14.19Zm2.5-14.191c4.833.758 9.043 5.874 11.589 13.318-3.84.543-7.711.835-11.589.875V2.858Zm0 28.642V19.55c4.128-.04 8.249-.36 12.334-.957A53.071 53.071 0 0 1 48.396 31.5H34.25Zm14.101-15.736a28.69 28.69 0 0 0-6.908-11.796A30.075 30.075 0 0 1 56.2 13.75a51.615 51.615 0 0 1-7.85 2.014ZM50.896 31.5a55.529 55.529 0 0 0-1.827-13.33 52.253 52.253 0 0 0 8.699-2.325 29.815 29.815 0 0 1 5.2 15.655H50.897Z" fill="#1629E6"/><path d="M55.5 75.253h8.75a1.25 1.25 0 0 0 1.25-1.25v-7a4.25 4.25 0 0 0-3.328-4.142 4.375 4.375 0 1 0-5.844 0 4.212 4.212 0 0 0-1.702.825 4.988 4.988 0 0 0-3.438-2.113 5 5 0 1 0-6.376 0 4.95 4.95 0 0 0-2.066.764 6.243 6.243 0 0 0-5.996-4.584h-.258a5.626 5.626 0 1 0-6.984 0h-.258a6.243 6.243 0 0 0-6 4.584 4.95 4.95 0 0 0-2.066-.764 5 5 0 1 0-6.375 0 4.989 4.989 0 0 0-3.439 2.113 4.211 4.211 0 0 0-1.701-.825 4.376 4.376 0 1 0-5.845 0A4.25 4.25 0 0 0 .5 67.003v7a1.25 1.25 0 0 0 1.25 1.25h8.75a1.25 1.25 0 0 0 1.25 1.25H23a1.25 1.25 0 0 0 1.25 1.25h17.5a1.25 1.25 0 0 0 1.25-1.25h11.25a1.25 1.25 0 0 0 1.25-1.25Zm3.75-17.5a1.874 1.874 0 1 1 0 3.75 1.874 1.874 0 0 1 0-3.75Zm-3.75 9.25a1.75 1.75 0 0 1 1.75-1.75h4a1.75 1.75 0 0 1 1.75 1.75v5.75h-7.5v-5.75Zm-48.75-9.25a1.874 1.874 0 1 1 0 3.749 1.874 1.874 0 0 1 0-3.749Zm3.75 15H3v-5.75a1.75 1.75 0 0 1 1.75-1.75h4a1.75 1.75 0 0 1 1.75 1.75v5.75Zm7.5-17.5a2.5 2.5 0 1 1 0 5 2.5 2.5 0 0 1 0-5Zm5 18.75H13v-7.5a2.5 2.5 0 0 1 2.5-2.5h5a2.5 2.5 0 0 1 2.5 2.5v7.5Zm10-23.75a3.126 3.126 0 1 1 0 6.251 3.126 3.126 0 0 1 0-6.25Zm7.5 25h-15v-11.25a3.75 3.75 0 0 1 3.75-3.75h7.5a3.75 3.75 0 0 1 3.75 3.75v11.25Zm7.5-20a2.5 2.5 0 1 1 0 5 2.5 2.5 0 0 1 0-5Zm5 18.75H43v-7.5a2.5 2.5 0 0 1 2.5-2.5h5a2.5 2.5 0 0 1 2.5 2.5v7.5Z" fill="#1629E6"/></svg>