<svg class="animate-spin-slow h-5 w-5 hidden" viewBox="0 0 19 18" fill="currentColor" xmlns="http://www.w3.org/2000/svg"><path d="M9.75031 1.5C9.55139 1.5 9.36063 1.57902 9.21998 1.71967C9.07932 1.86032 9.00031 2.05109 9.00031 2.25V3.75C9.00031 3.94891 9.07932 4.13968 9.21998 4.28033C9.36063 4.42098 9.55139 4.5 9.75031 4.5C9.94922 4.5 10.14 4.42098 10.2806 4.28033C10.4213 4.13968 10.5003 3.94891 10.5003 3.75V2.25C10.5003 2.05109 10.4213 1.86032 10.2806 1.71967C10.14 1.57902 9.94922 1.5 9.75031 1.5Z"/><path d="M16.5 8.25H15C14.8011 8.25 14.6103 8.32902 14.4697 8.46967C14.329 8.61032 14.25 8.80109 14.25 9C14.25 9.19891 14.329 9.38968 14.4697 9.53033C14.6103 9.67098 14.8011 9.75 15 9.75H16.5C16.6989 9.75 16.8897 9.67098 17.0303 9.53033C17.171 9.38968 17.25 9.19891 17.25 9C17.25 8.80109 17.171 8.61032 17.0303 8.46967C16.8897 8.32902 16.6989 8.25 16.5 8.25Z"/><path d="M5.2503 9C5.2503 8.80109 5.17129 8.61032 5.03063 8.46967C4.88998 8.32902 4.69922 8.25 4.5003 8.25H3.00031C2.80139 8.25 2.61063 8.32902 2.46998 8.46967C2.32932 8.61032 2.25031 8.80109 2.25031 9C2.25031 9.19891 2.32932 9.38968 2.46998 9.53033C2.61063 9.67098 2.80139 9.75 3.00031 9.75H4.5003C4.69922 9.75 4.88998 9.67098 5.03063 9.53033C5.17129 9.38968 5.2503 9.19891 5.2503 9Z"/><path d="M5.41459 3.75002C5.26839 3.61178 5.07326 3.53727 4.87213 3.5429C4.671 3.54853 4.48034 3.63382 4.34209 3.78002C4.20385 3.92622 4.12934 4.12135 4.13497 4.32248C4.1406 4.52362 4.22589 4.71428 4.37209 4.85252L5.45209 5.89502C5.52457 5.965 5.6104 6.01967 5.70447 6.05575C5.79854 6.09183 5.89891 6.10859 5.99959 6.10502C6.10062 6.10464 6.20053 6.08384 6.29332 6.04389C6.38612 6.00394 6.46988 5.94565 6.53959 5.87252C6.67928 5.732 6.75769 5.54191 6.75769 5.34377C6.75769 5.14563 6.67928 4.95554 6.53959 4.81502L5.41459 3.75002Z"/><path d="M13.4997 6.10499C13.6928 6.10422 13.8782 6.029 14.0172 5.89499L15.0972 4.85249C15.229 4.71483 15.3034 4.53218 15.3053 4.34165C15.3073 4.15111 15.2367 3.96697 15.1078 3.82662C14.9789 3.68628 14.8014 3.60025 14.6114 3.58602C14.4214 3.57179 14.2331 3.63041 14.0847 3.74999L13.0047 4.81499C12.865 4.95552 12.7866 5.1456 12.7866 5.34374C12.7866 5.54188 12.865 5.73197 13.0047 5.87249C13.1346 6.00953 13.3113 6.09256 13.4997 6.10499Z"/><path d="M9.75031 13.5C9.55139 13.5 9.36063 13.579 9.21998 13.7197C9.07932 13.8603 9.00031 14.0511 9.00031 14.25V15.75C9.00031 15.9489 9.07932 16.1397 9.21998 16.2803C9.36063 16.421 9.55139 16.5 9.75031 16.5C9.94922 16.5 10.14 16.421 10.2806 16.2803C10.4213 16.1397 10.5003 15.9489 10.5003 15.75V14.25C10.5003 14.0511 10.4213 13.8603 10.2806 13.7197C10.14 13.579 9.94922 13.5 9.75031 13.5Z"/><path d="M14.0478 12.1049C13.9046 11.9667 13.7124 11.891 13.5133 11.8945C13.3143 11.898 13.1248 11.9805 12.9866 12.1237C12.8484 12.2669 12.7727 12.4592 12.7762 12.6582C12.7797 12.8572 12.8621 13.0467 13.0053 13.1849L14.0853 14.2499C14.2244 14.384 14.4097 14.4592 14.6028 14.4599C14.7033 14.4605 14.8029 14.4409 14.8957 14.4023C14.9885 14.3636 15.0725 14.3067 15.1428 14.2349C15.2131 14.1652 15.2689 14.0823 15.307 13.9909C15.3451 13.8995 15.3647 13.8015 15.3647 13.7024C15.3647 13.6034 15.3451 13.5054 15.307 13.414C15.2689 13.3226 15.2131 13.2397 15.1428 13.1699L14.0478 12.1049Z"/><path d="M5.45251 12.105L4.37251 13.1475C4.30222 13.2172 4.24642 13.3002 4.20835 13.3916C4.17027 13.483 4.15067 13.581 4.15067 13.68C4.15067 13.779 4.17027 13.8771 4.20835 13.9685C4.24642 14.0599 4.30222 14.1428 4.37251 14.2125C4.44286 14.2843 4.52691 14.3412 4.61967 14.3798C4.71244 14.4185 4.81202 14.4381 4.91251 14.4375C5.0974 14.4391 5.27635 14.3723 5.41501 14.25L6.49501 13.2075C6.63823 13.0693 6.72066 12.8798 6.72418 12.6808C6.7277 12.4818 6.65201 12.2895 6.51376 12.1463C6.37552 12.0031 6.18604 11.9206 5.98702 11.9171C5.788 11.9136 5.59573 11.9893 5.45251 12.1275V12.105Z"/></svg>