<svg width="112" height="22" viewBox="0 0 112 18" fill="none" xmlns="http://www.w3.org/2000/svg"><path d="M.537 16V.053h2.315V16H.537ZM6.4 16V.053h2.315V16H6.399Zm9.616 0V2.234H10.71V.053h12.924v2.181H18.33V16h-2.314Zm13.155 0V.053h6.268c1.012 0 1.86.206 2.547.62.687.413 1.204.949 1.55 1.606.348.65.521 1.336.521 2.06 0 .878-.217 1.631-.653 2.259a3.206 3.206 0 0 1-1.739 1.284l-.022-.542c1.019.25 1.801.742 2.348 1.473.546.723.82 1.569.82 2.536 0 .937-.189 1.753-.565 2.447a3.932 3.932 0 0 1-1.628 1.628c-.71.384-1.57.576-2.58.576H29.17Zm2.348-2.204h4.164c.524 0 .993-.1 1.406-.299.421-.2.75-.483.986-.853.244-.376.365-.823.365-1.34 0-.48-.107-.911-.32-1.295a2.224 2.224 0 0 0-.909-.92c-.391-.228-.853-.343-1.384-.343h-4.308v5.05Zm0-7.231h3.887a2.54 2.54 0 0 0 1.152-.255c.347-.177.62-.428.82-.753.206-.333.31-.731.31-1.196 0-.62-.207-1.13-.62-1.529-.414-.398-.968-.598-1.662-.598h-3.887v4.33Zm16.69 9.767c-1.197 0-2.234-.27-3.113-.808a5.449 5.449 0 0 1-2.038-2.226c-.472-.953-.708-2.049-.708-3.29 0-1.247.243-2.343.73-3.288.488-.953 1.17-1.691 2.05-2.215.878-.532 1.904-.798 3.078-.798 1.196 0 2.233.27 3.112.809a5.448 5.448 0 0 1 2.038 2.226c.48.945.72 2.034.72 3.267 0 1.247-.244 2.348-.731 3.3a5.449 5.449 0 0 1-2.038 2.226c-.879.531-1.912.797-3.1.797Zm0-2.181c1.144 0 1.996-.384 2.557-1.152.569-.775.853-1.772.853-2.99 0-1.248-.288-2.245-.864-2.99-.568-.753-1.417-1.13-2.547-1.13-.775 0-1.414.177-1.916.532-.502.347-.875.83-1.118 1.45-.244.613-.366 1.326-.366 2.138 0 1.255.288 2.259.864 3.012.576.753 1.421 1.13 2.536 1.13ZM70.84 16l.01-7.453c0-.864-.22-1.536-.664-2.016-.443-.487-1.026-.73-1.75-.73a2.45 2.45 0 0 0-1.218.31c-.361.199-.657.502-.886.908-.221.398-.332.9-.332 1.506l-1.118-.565c-.015-.842.162-1.58.531-2.215a3.906 3.906 0 0 1 1.528-1.473c.643-.354 1.363-.531 2.16-.531 1.292 0 2.292.387 3.001 1.162.709.776 1.063 1.805 1.063 3.09L73.156 16H70.84Zm-14.342 0V4.04h2.06v3.455h.266V16h-2.326Zm7.176 0 .012-7.409c0-.871-.222-1.554-.665-2.049-.435-.494-1.023-.742-1.76-.742-.732 0-1.322.251-1.773.753-.443.502-.664 1.16-.664 1.972l-1.108-.71c0-.782.189-1.48.565-2.092a4.065 4.065 0 0 1 1.529-1.45c.642-.355 1.369-.532 2.181-.532.85 0 1.573.18 2.17.542a3.428 3.428 0 0 1 1.363 1.495c.317.643.476 1.388.476 2.237L65.991 16h-2.316Zm17.982.332c-1.144 0-2.104-.277-2.88-.83-.775-.562-1.362-1.318-1.76-2.27-.4-.953-.598-2.027-.598-3.223 0-1.196.195-2.27.587-3.223.398-.952.981-1.702 1.75-2.248.775-.554 1.727-.83 2.856-.83 1.123 0 2.09.276 2.902.83.82.546 1.45 1.296 1.894 2.248.443.945.664 2.02.664 3.223 0 1.196-.221 2.274-.664 3.233-.436.953-1.06 1.706-1.872 2.26-.805.553-1.764.83-2.88.83ZM76.03 16V.053h2.326v7.342h-.266V16h-2.06Zm5.305-1.76c.738 0 1.347-.19 1.827-.566.487-.376.849-.882 1.085-1.517.244-.642.366-1.358.366-2.148 0-.783-.122-1.492-.366-2.127-.236-.635-.601-1.14-1.096-1.517-.495-.376-1.126-.565-1.894-.565-.723 0-1.321.178-1.794.532-.465.354-.812.849-1.04 1.484-.222.635-.333 1.366-.333 2.193s.11 1.557.332 2.192c.222.635.572 1.134 1.052 1.495.48.362 1.1.543 1.86.543Zm11.56 2.092c-.887 0-1.629-.162-2.227-.487-.598-.332-1.052-.768-1.362-1.307a3.64 3.64 0 0 1-.454-1.794c0-.605.107-1.137.321-1.595.214-.457.532-.845.953-1.162.42-.325.937-.587 1.55-.787a17.001 17.001 0 0 1 1.805-.41 61.322 61.322 0 0 1 2.115-.332c.746-.103 1.484-.206 2.215-.31l-.841.465c.014-.937-.185-1.631-.598-2.082-.406-.457-1.108-.686-2.105-.686a3.46 3.46 0 0 0-1.727.443c-.524.288-.89.767-1.096 1.44l-2.16-.665c.295-1.026.856-1.842 1.683-2.448.834-.605 1.942-.908 3.323-.908 1.07 0 2 .185 2.79.554.798.362 1.381.938 1.75 1.728.192.39.31.804.355 1.24.044.436.066.904.066 1.406V16h-2.049v-2.735l.399.354c-.495.915-1.126 1.598-1.894 2.049-.76.443-1.698.664-2.813.664Zm.409-1.894c.657 0 1.222-.114 1.694-.343a3.336 3.336 0 0 0 1.141-.897c.288-.362.476-.738.565-1.13.125-.354.195-.752.21-1.195.022-.443.033-.798.033-1.064l.754.277c-.731.111-1.396.21-1.994.3a50.68 50.68 0 0 0-1.628.265 9.75 9.75 0 0 0-1.284.299 4.34 4.34 0 0 0-.853.399c-.244.155-.44.343-.587.565-.14.221-.21.49-.21.808 0 .31.077.598.232.864.155.258.391.465.709.62.317.155.723.232 1.218.232Zm9.769 6.878 2.315-6.302.033 1.86-5.216-12.834h2.414l3.898 9.911h-.709l3.722-9.911h2.347l-6.6 17.276h-2.204Z" fill="#1E1E1E"/></svg>