<svg width="78" height="80" fill="none" xmlns="http://www.w3.org/2000/svg"><path d="M70.721 8.678a7.14 7.14 0 0 0-.49-.003h-6.17V3.374C64.062 1.253 62.039 0 59.918 0H54.23c-2.12 0-3.662 1.253-3.662 3.374v5.3H27.435v-5.3C27.435 1.253 25.893 0 23.773 0h-5.687c-2.12 0-4.145 1.253-4.145 3.374v5.3H7.773a7.133 7.133 0 0 0-7.326 7.422v55.711C.447 76.048 3.532 80 7.773 80H70.23c4.24 0 7.325-3.952 7.325-8.193v-55.71a7.133 7.133 0 0 0-6.835-7.42Zm-16.49-4.823h5.975v10.603H54.23V3.855Zm-36.145 0h5.494v10.603h-5.494V3.855Zm55.615 67.952c0 2.12-1.35 4.337-3.47 4.337H7.773c-2.12 0-3.47-2.216-3.47-4.337V30.843h69.398v40.964Zm0-55.71v10.891H4.303V16.096a3.277 3.277 0 0 1 3.47-3.566h6.168v2.12c0 2.121 2.024 3.663 4.145 3.663h5.687a3.566 3.566 0 0 0 3.662-3.662V12.53h23.133v2.12a3.566 3.566 0 0 0 3.663 3.663h5.686c2.12 0 4.145-1.542 4.145-3.662V12.53h6.169a3.277 3.277 0 0 1 3.47 3.566Z" fill="#1629E6"/><path d="m28.303 57.157-1.735 9.639a1.928 1.928 0 0 0 2.795 2.023l8.675-4.53 8.675 4.53.867.193c.419.008.827-.129 1.157-.385.576-.421.872-1.125.77-1.832l-1.734-9.638 7.036-6.747a2.12 2.12 0 0 0 .482-2.024 2.024 2.024 0 0 0-1.542-1.253l-9.639-1.446-4.337-8.771a1.927 1.927 0 0 0-3.47 0l-4.337 8.771-9.639 1.446a2.024 2.024 0 0 0-1.542 1.253 2.12 2.12 0 0 0 .482 2.024l7.036 6.747Zm5.302-7.807a1.735 1.735 0 0 0 1.349-1.06l3.084-6.17 3.084 6.17c.232.566.744.97 1.35 1.06l6.843.964-4.915 4.722a2.025 2.025 0 0 0-.579 1.735l1.157 6.844-6.073-3.277-.867-.193-.867.193-6.073 3.277 1.157-6.844a2.024 2.024 0 0 0-.579-1.735l-4.915-4.722 6.844-.964Z" fill="#1629E6"/></svg>