<svg width="47" height="25" viewBox="0 0 47 25" fill="none" xmlns="http://www.w3.org/2000/svg"><path d="M2.94449 7.46698V1.94811H4.25675V7.46698H2.94449ZM0.773732 5.32075V4.09434H6.42751V5.32075H0.773732ZM8.36333 9V0.415093H9.67559L13.4284 6.68208H12.7416L16.4331 0.415093H17.7454L17.7577 9H16.2492L16.2369 2.78207H16.5558L13.4162 8.01887H12.7048L9.51616 2.78207H9.88408V9H8.36333ZM18.8624 9L22.7256 0.415093H24.2954L28.1709 9H26.503L23.1794 1.26132H23.8171L20.5058 9H18.8624ZM20.6407 7.01321L21.0699 5.76226H25.7058L26.135 7.01321H20.6407ZM29.2627 9V0.415093H30.575L35.9589 7.02547H35.3089V0.415093H36.891V9H35.5787L30.1948 2.38962H30.8448V9H29.2627ZM41.3008 9V5.60283L41.6565 6.58396L37.9282 0.415093H39.6329L42.6253 5.38208H41.6687L44.6857 0.415093H46.2555L42.5272 6.58396L42.8952 5.60283V9H41.3008ZM1.12939 24V15.4151H2.44166L6.19449 21.6821H5.5077L9.1992 15.4151H10.5115L10.5237 24H9.01524L9.00298 17.7821H9.32185L6.18222 23.0189H5.4709L2.28222 17.7821H2.65015V24H1.12939ZM16.8653 24.1226C16.1948 24.1226 15.5775 24.0123 15.0134 23.7915C14.4492 23.5708 13.9587 23.2642 13.5417 22.8717C13.1247 22.4711 12.8017 22.005 12.5728 21.4736C12.3439 20.934 12.2294 20.3453 12.2294 19.7075C12.2294 19.0698 12.3439 18.4852 12.5728 17.9538C12.8017 17.4142 13.1247 16.9481 13.5417 16.5557C13.9587 16.155 14.4492 15.8443 15.0134 15.6236C15.5775 15.4028 16.1907 15.2925 16.853 15.2925C17.5234 15.2925 18.1366 15.4028 18.6926 15.6236C19.2568 15.8443 19.7473 16.155 20.1643 16.5557C20.5813 16.9481 20.9043 17.4142 21.1332 17.9538C21.3621 18.4852 21.4766 19.0698 21.4766 19.7075C21.4766 20.3453 21.3621 20.934 21.1332 21.4736C20.9043 22.0132 20.5813 22.4792 20.1643 22.8717C19.7473 23.2642 19.2568 23.5708 18.6926 23.7915C18.1366 24.0123 17.5275 24.1226 16.8653 24.1226ZM16.853 22.7245C17.2863 22.7245 17.687 22.6509 18.0549 22.5038C18.4228 22.3566 18.7417 22.1481 19.0115 21.8783C19.2813 21.6003 19.4898 21.2814 19.637 20.9217C19.7923 20.5538 19.87 20.1491 19.87 19.7075C19.87 19.266 19.7923 18.8654 19.637 18.5057C19.4898 18.1377 19.2813 17.8189 19.0115 17.5491C18.7417 17.2711 18.4228 17.0585 18.0549 16.9113C17.687 16.7642 17.2863 16.6906 16.853 16.6906C16.4197 16.6906 16.019 16.7642 15.6511 16.9113C15.2914 17.0585 14.9725 17.2711 14.6945 17.5491C14.4247 17.8189 14.2121 18.1377 14.0568 18.5057C13.9096 18.8654 13.836 19.266 13.836 19.7075C13.836 20.1409 13.9096 20.5415 14.0568 20.9094C14.2121 21.2774 14.4247 21.6003 14.6945 21.8783C14.9643 22.1481 15.2832 22.3566 15.6511 22.5038C16.019 22.6509 16.4197 22.7245 16.853 22.7245ZM23.1665 24V15.4151H26.6986C27.459 15.4151 28.109 15.5377 28.6486 15.783C29.1964 16.0283 29.6175 16.3799 29.9118 16.8377C30.2062 17.2956 30.3533 17.8393 30.3533 18.4689C30.3533 19.0984 30.2062 19.6421 29.9118 20.1C29.6175 20.5497 29.1964 20.8972 28.6486 21.1425C28.109 21.3796 27.459 21.4981 26.6986 21.4981H24.0496L24.7609 20.7745V24H23.1665ZM28.7835 24L26.6128 20.8849H28.3175L30.5005 24H28.7835ZM24.7609 20.9462L24.0496 20.1858H26.625C27.3282 20.1858 27.8555 20.0346 28.2071 19.7321C28.5669 19.4296 28.7467 19.0085 28.7467 18.4689C28.7467 17.9211 28.5669 17.5 28.2071 17.2057C27.8555 16.9113 27.3282 16.7642 26.625 16.7642H24.0496L24.7609 15.9792V20.9462ZM33.6088 18.984H37.8767V20.2962H33.6088V18.984ZM33.7314 22.6632H38.5758V24H32.1371V15.4151H38.4041V16.7519H33.7314V22.6632ZM40.8163 24.0858C40.5383 24.0858 40.3012 23.9918 40.105 23.8038C39.9087 23.6075 39.8106 23.3623 39.8106 23.0679C39.8106 22.7572 39.9087 22.5119 40.105 22.3321C40.3012 22.144 40.5383 22.05 40.8163 22.05C41.0943 22.05 41.3314 22.144 41.5276 22.3321C41.7238 22.5119 41.8219 22.7572 41.8219 23.0679C41.8219 23.3623 41.7238 23.6075 41.5276 23.8038C41.3314 23.9918 41.0943 24.0858 40.8163 24.0858Z" fill="#1E1E1E"/></svg>