<svg width="80" height="80" fill="none" xmlns="http://www.w3.org/2000/svg"><path d="M78.667 71.037V39.999a1.304 1.304 0 0 0-.154-.59h.014l-3.264-6.527a3.977 3.977 0 0 0-3.578-2.216h-9.018v-1.333c0-.354-.14-.693-.391-.943l-7.219-7.219a3.946 3.946 0 0 0-1.724-.998v-8.994L56 10.463v3.239a4.087 4.087 0 0 0 1.823 3.407 1.333 1.333 0 0 0 1.48-2.219 1.424 1.424 0 0 1-.636-1.188V9.63a2.667 2.667 0 0 0-.64-4.884L40.685.09a2.654 2.654 0 0 0-1.37 0L21.973 4.746a2.681 2.681 0 0 0 0 5.173l4.694 1.26V20h-.084a3.99 3.99 0 0 0-3.067 1.44l-5.867 7.04c-.202.239-.314.541-.316.854v1.333H8.315a3.977 3.977 0 0 0-3.578 2.21l-3.264 6.527h.014c-.098.184-.15.388-.154.596v31.038A2.657 2.657 0 0 0 0 73.333v2.666a2.667 2.667 0 0 0 2.667 2.667H20.37a2.657 2.657 0 0 0 2.296 1.333h34.666a2.657 2.657 0 0 0 2.296-1.333h17.704A2.667 2.667 0 0 0 80 75.999v-2.666a2.657 2.657 0 0 0-1.333-2.296Zm-20-.371h-1.334V41.333H76v29.333H58.667Zm-14.667 0h-8V55.999h8v14.667Zm1.333-17.333H34.667c-.737 0-1.334.597-1.334 1.333v16h-8V41.333h29.334v29.333h-8v-16c0-.736-.597-1.333-1.334-1.333ZM60 30.666v2.667H20v-2.667h40Zm-2.667 5.333v2.667H22.667v-2.667h34.666Zm14.352-2.666c.506-.002.968.284 1.192.737l2.299 4.596H60v-2.667a2.667 2.667 0 0 0 2.667-2.666h9.018ZM40 2.666l17.352 4.667h-.017l-17.328 4.666-17.34-4.677L40 2.666Zm-10.667 9.23 9.982 2.68c.449.12.921.12 1.37 0l9.982-2.68v8.103H29.333v-8.104Zm-3.774 11.25c.253-.304.628-.48 1.024-.48h25.645c.354 0 .694.14.944.39L58.115 28H21.513l4.046-4.853ZM7.123 34.07a1.325 1.325 0 0 1 1.192-.737h9.018A2.667 2.667 0 0 0 20 35.999v2.667H4.824l2.299-4.596ZM2.667 73.333H20v2.666H2.667v-2.666Zm18.666-2.667H4V41.333h18.667v29.333h-1.334Zm1.334 6.667v-4h34.666v4H22.667Zm54.666-1.334H60v-2.666h17.333v2.666Z" fill="#1629E6"/><path d="M36.001 44c-.736 0-1.333.597-1.333 1.333V48a1.333 1.333 0 1 0 2.667 0v-2.667c0-.736-.597-1.333-1.334-1.333ZM17.333 45.336c-.736 0-1.333.597-1.333 1.333v2.667a1.333 1.333 0 1 0 2.667 0v-2.667c0-.736-.597-1.333-1.334-1.333ZM9.333 45.336c-.736 0-1.333.597-1.333 1.333v2.667a1.333 1.333 0 1 0 2.667 0v-2.667c0-.736-.597-1.333-1.334-1.333ZM17.333 53.336c-.736 0-1.333.597-1.333 1.333v2.667a1.333 1.333 0 1 0 2.667 0v-2.667c0-.736-.597-1.333-1.334-1.333ZM9.333 53.336c-.736 0-1.333.597-1.333 1.333v2.667a1.333 1.333 0 1 0 2.667 0v-2.667c0-.736-.597-1.333-1.334-1.333ZM17.333 61.336c-.736 0-1.333.597-1.333 1.333v2.667a1.333 1.333 0 1 0 2.667 0v-2.667c0-.736-.597-1.333-1.334-1.333ZM9.333 61.336c-.736 0-1.333.597-1.333 1.333v2.667a1.333 1.333 0 1 0 2.667 0v-2.667c0-.736-.597-1.333-1.334-1.333ZM70.665 45.336c-.736 0-1.333.597-1.333 1.333v2.667a1.333 1.333 0 0 0 2.667 0v-2.667c0-.736-.597-1.333-1.334-1.333ZM62.665 45.336c-.736 0-1.333.597-1.333 1.333v2.667a1.333 1.333 0 0 0 2.667 0v-2.667c0-.736-.597-1.333-1.334-1.333ZM70.665 53.336c-.736 0-1.333.597-1.333 1.333v2.667a1.333 1.333 0 0 0 2.667 0v-2.667c0-.736-.597-1.333-1.334-1.333ZM62.665 53.336c-.736 0-1.333.597-1.333 1.333v2.667a1.333 1.333 0 0 0 2.667 0v-2.667c0-.736-.597-1.333-1.334-1.333ZM70.665 61.336c-.736 0-1.333.597-1.333 1.333v2.667a1.333 1.333 0 0 0 2.667 0v-2.667c0-.736-.597-1.333-1.334-1.333ZM62.665 61.336c-.736 0-1.333.597-1.333 1.333v2.667a1.333 1.333 0 0 0 2.667 0v-2.667c0-.736-.597-1.333-1.334-1.333ZM44.001 44c-.736 0-1.333.597-1.333 1.333V48a1.333 1.333 0 1 0 2.667 0v-2.667c0-.736-.597-1.333-1.334-1.333Z" fill="#1629E6"/></svg>