<svg width="116" height="18" fill="none" xmlns="http://www.w3.org/2000/svg"><path d="M.726 17V1.276h6.18c.998 0 1.835.203 2.512.611s1.187.935 1.53 1.583a4.25 4.25 0 0 1 .512 2.031c0 .867-.214 1.61-.644 2.228a3.162 3.162 0 0 1-1.714 1.267L9.08 8.46c1.004.247 1.776.731 2.315 1.452.539.713.808 1.547.808 2.5 0 .925-.186 1.73-.557 2.414-.364.684-.9 1.22-1.605 1.605-.7.379-1.547.568-2.545.568H.726Zm2.315-2.173h4.106c.517 0 .98-.098 1.387-.295.415-.196.739-.477.972-.84.24-.372.36-.812.36-1.322 0-.473-.106-.9-.317-1.278a2.192 2.192 0 0 0-.895-.906c-.386-.226-.84-.338-1.365-.338H3.041v4.979Zm0-7.13h3.833c.422 0 .8-.084 1.136-.252a1.99 1.99 0 0 0 .808-.742c.204-.328.306-.721.306-1.18 0-.611-.204-1.114-.612-1.507-.408-.393-.954-.59-1.638-.59H3.041v4.27ZM14.594 17V1.276h2.283V17h-2.283Zm9.482 0V3.427h-5.23V1.276h12.743v2.15h-5.23V17h-2.283Zm14.96.328c-1.128 0-2.147-.193-3.057-.58a5.865 5.865 0 0 1-2.239-1.67c-.582-.728-.96-1.59-1.135-2.588l2.38-.36c.24.96.743 1.71 1.507 2.25.764.53 1.656.796 2.675.796.634 0 1.216-.098 1.748-.294.531-.204.957-.492 1.277-.863a2 2 0 0 0 .492-1.354c0-.284-.051-.535-.153-.754a1.653 1.653 0 0 0-.404-.567 2.185 2.185 0 0 0-.623-.426 4.663 4.663 0 0 0-.797-.317l-4.03-1.19a9.737 9.737 0 0 1-1.2-.448 4.737 4.737 0 0 1-1.125-.732 3.588 3.588 0 0 1-.82-1.124c-.21-.452-.316-.998-.316-1.638 0-.969.248-1.788.743-2.457.502-.677 1.179-1.187 2.03-1.529.853-.35 1.806-.524 2.862-.524 1.063.014 2.013.204 2.85.568a5.392 5.392 0 0 1 2.096 1.572c.56.677.947 1.5 1.158 2.468l-2.446.415a3.21 3.21 0 0 0-.699-1.518 3.499 3.499 0 0 0-1.31-.983 4.17 4.17 0 0 0-1.682-.36 4.112 4.112 0 0 0-1.605.262c-.48.19-.867.455-1.158.797a1.794 1.794 0 0 0-.426 1.18c0 .436.128.79.383 1.059a2.8 2.8 0 0 0 .939.644c.378.153.753.28 1.124.382l2.905.82c.364.101.775.24 1.234.414a5.55 5.55 0 0 1 1.343.71c.437.306.797.713 1.081 1.223.284.502.426 1.136.426 1.9 0 .793-.16 1.492-.48 2.097a4.44 4.44 0 0 1-1.322 1.507c-.553.4-1.194.702-1.922.906a8.504 8.504 0 0 1-2.304.306ZM51.763 17V1.276h6.356c.153 0 .342.007.568.021.225.008.44.03.644.066.873.138 1.601.437 2.184.895a4.215 4.215 0 0 1 1.321 1.737c.291.698.437 1.47.437 2.315 0 .851-.146 1.627-.437 2.325a4.215 4.215 0 0 1-1.321 1.737c-.583.458-1.31.757-2.184.895a8.29 8.29 0 0 1-.655.066 8.945 8.945 0 0 1-.557.021h-4.073V17h-2.283Zm2.283-7.808h3.985c.146 0 .306-.007.48-.021.183-.015.354-.04.514-.077.466-.11.84-.31 1.125-.6.284-.299.488-.641.611-1.027a3.67 3.67 0 0 0 0-2.304 2.554 2.554 0 0 0-.611-1.016c-.284-.298-.66-.502-1.125-.611a2.794 2.794 0 0 0-.513-.087 5.822 5.822 0 0 0-.48-.022h-3.986v5.765ZM65.674 17V1.276h2.282V17h-2.282Zm5.78 0V1.276h2.282v13.573h7.12V17h-9.402Zm10.164 0 5.11-15.724h3.287L95.125 17h-2.369L88.05 2.651h.59L83.986 17h-2.37Zm2.653-3.549v-2.14h8.212v2.14h-8.212ZM97.085 17V1.276H99.4l7.742 11.684V1.276h2.315V17h-2.315L99.4 5.305V17h-2.315Zm15.638 0V1.276h2.282V17h-2.282Z" fill="#1E1E1E"/></svg>