<svg width="126" height="30" fill="none" xmlns="http://www.w3.org/2000/svg"><path d="M6.052 20.149a1.343 1.343 0 0 0-.213.14H.01v5.997L3.694 30h12.403l3.613-3.609V15.185l-3.744-3.618h-4.678c-.016-.344.056-.646.056-.646.5-.247 1.01.374 1.01.374.24-.02.542.152.542.152.355-.116 1.42.159 1.468.081.04-.636-.219-1.023-.432-1.23h5.78V4.211L15.595 0H4.294L0 4.264v10.97l3.73 3.73h3.392c-.078.199-.159.364-.159.364l-.911.82Zm6.26-10.862c-.122-.056-.284-.057-.284-.057l-.224-.242c0-.503-.547-.366-.547-.366l.046-.274c.15 0 .566.06 1.01.122v.817Zm-.42 11.636.753.03v1.817h-1.792v-.307l.019-1.65c.03-.398.327-.162.327-.162.251.253.692.272.692.272Zm.42-13.417c-.021-.007-.043-.019-.064-.028h.064v.028ZM3.93 18.478.492 15.04V4.485L4.488.507h10.894l3.882 3.98V9.81h-5.936c-.042-.069-.07-.122-.07-.122-.105-.191-.29-.262-.455-.286v-.865c.47.062.874.105.922.057.22-.222-.347-.577-.922-.86v-.737h-1.607c-.399-.269-.461-.5-.461-.5-.137-.868.821-.514.821-.514.507.039.611-.25.611-.25-.195-.566-.91-.748-1.024-.796-.136-.057-.157-.108-.105-.212.036-.071.421.103.546-.02.285-.287-.708-.921-.708-.921.646-.036-.067-.697-.067-.697-.43-.34-.28-.64-.28-.64.454.046.453-.43.382-.448-.67-.153-.556-.415-.556-.415 0-.228-.11-.464-.11-.464.09-.41-.095-.328-.095-.328-.273 0-.115.245-.115.245-.099.412-.383.698-.383.698-.618-.012-.296.567-.296.567l.384-.034-.09.375c-.89.389-.646 1.03-.139 1.088a.251.251 0 0 1-.027.22c-.528.022-.423.225-.87.442-.345.171-.337.348-.31.473.05.25.385.012.385.012l-.329.447c-1.1.489-.13.808-.13.808.865-.517 1.203-.32 1.203-.32.137.544-.134.929-.45 1.181h-1.7v.764c-.533.369-.727.862-.727.862-.365.366-.183.548-.183.548.181.09.565-.057.908-.226v1.04a1.562 1.562 0 0 0-.047.022c-.228.456-1.095.822-1.095.822-1.05.454-.548 1.05-.548 1.05.168.028 1.04-.152 1.69-.293v.49h1.536c-.193.328-.533.67-.533.67-.138.455-.684.639-.684.639-1.46.364-1.37.865-1.37.865l1.095-.09c.32-.274.549 0 .549 0l.364.09c.184.274-.087 1.085-.087 1.085h-.73c-.045.275-.546.272-.546.272-.228-.089-.503.185-.503.185-.091.182-.502.365-.502.365-.364.09-.09.273-.09.273.32-.228.32.272.32.272-.091.23-.834.219-.822.411.023.34 2.51-.686 2.51-.686.319-.27.547-.134.547-.134.228.364-.456.82-.456.82-.274.32-.719.495-.719.495-1.053.17-1.172.78-1.182.871-1.194.003-2.048.003-2.048.003Zm3.995-9.9c.503-.504.868 0 .868 0 .867.32.275.637.275.637-.114 0-.785.302-1.282.53v-1.08c.087-.052.14-.088.14-.088Zm-.14-1.074v-.026h.074c-.026.008-.05.018-.074.026Zm.226 3.914c.821-.318.867.14.867.14l.007.007h-1.1v-.094l.226-.053Zm1.534 9.473c.148.307.177 1.142.177 1.142v.17l-.017.57H8.061v-1.495c.362-.264.605-.759.605-.759.464-.193.73.066.879.372Zm-3.51-2.413 1.119-.23c.09.013.112.103.102.23h-1.22Zm1.112 3.176c.137-.231.365-.227.365-.227.016.002.03.001.046.004v1.85h2.17l-.039.863c-.01.388-.036 1.215-.067 1.45-.092.701-.252.8-.351.864-.14.088-.344.124-.645.253-.74.311-.676 1.09-1.033 1.317-.436.278-.316.189-.703.275-.39.086-.599.517-.599.517h7.924c-.031-.245.022-.466-.906-.774-.905-.3-.448-.462-1.614-1.055-.42-.212-.64-.967-.756-1.531-.087-.43-.036-.626-.036-.626l-.045-1.3-.001-.253h2.277v-2.302c.543.093 1.45.81 1.45.81.958.55.776-.047.776-.047-.274-1.959-1.415-2.142-1.415-2.142-.684-.184-.228-.595-.228-.595.822-.637-.149-.813-.149-.813-.638.088-1.315-.343-1.315-.343-1.142-.868-.724-1.425-.724-1.425.09-.593 1.447.287 1.447.287.364.32.73.043.73.043.044-.181.47-.513.47-.513.776-.593-1.096-.728-1.096-.728-.89-.557-1.437-.745-1.702-1.443a1.11 1.11 0 0 1-.078-.326s1.402.13 1.48.148c.079.017.584.073.571-.104-.009-.13-.256-.512-.829-.77-.501-.224-.93-.664-1.103-.95h4.33l3.516 3.375v10.69l-3.436 3.437H3.95L.5 26.082v-5.285h4.866c-.56.771-.896 1.851-.896 1.851-.045.548.72.092.72.092l.1-.183c.272-.457 1.007-.502 1.007-.502.363.088.85-.4.85-.4Z" fill="#1E1E1E"/><path d="M10.563 1.555c.028.024.123.096.408.16.159.037.262.184.264.359a.867.867 0 0 1-.005.08c-.03.177-.164.448-.396.515.016.01.121.092.121.092.396.309.719.89.387 1 .45.307.599.624.604.748.013.279-.152.344-.181.385.262.127.55.379.676.746l.034.1-.036.097c-.065.184-.332.486-.91.443l-.035-.005-.034-.01c-.174-.054-.352-.076-.423-.013-.019.018-.041.045-.041.104 0 .022.025.057.028.083.009.017.03.05.067.095h2.208v1.129c.4.232.7.482.754.727.006.03.01.06.012.09a.454.454 0 0 1-.135.323c-.099.099-.206.132-.631.094V9.3a.82.82 0 0 1 .051.047h5.415V4.731l-3.59-3.692h-4.653a.664.664 0 0 0-.006.035c.049.075.12.471.047.48ZM7.66 16.92l.027-.03.032-.023a1.4 1.4 0 0 0 .21-.176l-.024.01c-2.342.962-2.638.776-2.749.707a.343.343 0 0 1-.167-.275l-.002-.025c-.002-.32.352-.413.59-.473a.46.46 0 0 1-.184-.34c-.002-.023 0-.046.003-.07.02-.115.105-.267.372-.345.15-.068.306-.153.338-.203l.04-.06.03-.03c.041-.042.394-.416.741-.273.098 0 .18-.03.224-.06.009-.045.037-.217.037-.217h.758c.051-.198.081-.395.08-.52 0-.01-.003-.012-.004-.023-.101-.026-.203-.05-.203-.05l-.09-.03-.059-.061c-.02-.02-.046-.048-.135.028l-.072.062-1.457.122-.048-.263c-.032-.181-.015-.8 1.566-1.2.115-.042.42-.196.494-.445l.017-.056h-1.23v-.61c-.565.115-1.082.2-1.243.175l-.107-.02-.07-.082a.854.854 0 0 1-.19-.52c0-.06.005-.123.021-.188.077-.329.354-.596.828-.803a3.16 3.16 0 0 0 .761-.463v-.64c-.209.05-.4.055-.546-.018l-.041-.022-.035-.033a.485.485 0 0 1-.133-.34c-.001-.149.064-.344.271-.569.05-.106.196-.391.484-.679V6.531h2.247a.722.722 0 0 0 .138-.434L9.18 6.08c-.138.013-.388.07-.791.311l-.106.065-.12-.031c-.141-.036-.608-.189-.639-.57a.272.272 0 0 1-.002-.032c-.003-.307.288-.556.56-.692 0 0-.003 0-.003-.002a.773.773 0 0 1-.1-.298c.012-.37.46-.652.858-.956l.054-.055a.382.382 0 0 1-.181-.315c-.004-.23-.026-.565.49-.915l-.08-.114a1.369 1.369 0 0 1-.145-.523.48.48 0 0 1 .054-.228c.062-.122.115-.264.442-.272h.083c.01-.002.12-.237.199-.39-.003-.009-.003-.016-.005-.023H4.698L1 4.731v10.138l3.147 3.15h1.605c.128-.243.461-.611 1.32-.755.01-.003.383-.101.588-.344ZM5.549 22.71l-.137.243-.069.04c-.18.11-.636.34-.944.147a.502.502 0 0 1-.224-.437l.003-.077.003-.03.009-.032c.033-.11.212-.654.51-1.236H1v4.582l3.153 3.202h1.673l.201-.418c.028-.055.286-.56.798-.673l.226-.043c.106-.017.106-.017.384-.194.084-.052.173-.197.246-.375.143-.35.292-.738.828-.965.168-.071.218-.103.36-.14.09-.023.207-.071.242-.091.04-.025.142-.089.217-.652.02-.147.047-.494.055-.917l.01-.51v-.03a2.057 2.057 0 0 0-.028.037l.01-.327H7.066v-1.706c-.202.142-.48.281-.757.247-.168.008-.61.095-.76.355ZM14.495 28.728l.044.382h1.08l3.144-3.15V15.68l-3.23-3.078h-3.171c.087.056.175.11.272.152.623.278.983.73 1.002 1.017v.02a.372.372 0 0 1-.227.346c-.118.056-.556.127-.777.032-.202-.022-.55-.056-.928-.09.187.377.498.574 1.031.889l.431.259c.616.052 1.341.202 1.465.62.01.037.02.082.02.126.002.142-.064.32-.303.502-.165.132-.341.305-.37.368a5.53 5.53 0 0 0-.029.092l-.074.058a.873.873 0 0 1-1.072-.036c-.379-.247-.828-.443-1-.444a.947.947 0 0 1-.01.04l-.029.041a.228.228 0 0 0-.025.113c.003.178.145.492.676.9.06.035.613.364 1.104.294l.046-.008.047.01c.102.018.609.129.707.526.063.26-.077.53-.41.794-.013.014-.025.027-.034.042a.842.842 0 0 0 .134.049c.19.04 1.35.37 1.634 2.382.04.162.025.382-.148.52-.283.228-.718.03-1.063-.17l-.02-.01-.018-.015a6.397 6.397 0 0 0-.767-.519v2.307h-2.47l.035 1.03v.015c0 .004-.047.164.03.548.138.673.358 1.204.602 1.329.638.323.838.486.997.673.128.15.203.241.577.363.872.29 1.054.553 1.097.96Z" fill="#1E1E1E"/><path d="m11.766 16.614.007-.01v-.002l-.007.012ZM52.528 18.44c-2.222.817-2.481 2.508-2.481 3.462 0 .812.268 3.461 3.757 3.461 1.618 0 2.654-.738 3.221-1.329.237.817.948 1.302 1.97 1.302 1.182 0 1.845-.593 2.542-1.433l.14-.182-.423-.483-.207.178c-.105.09-.233.128-.422.128-.754 0-.9-.704-.9-1.614 0-.362.014-.955.03-1.638.023-.993.05-2.229.05-3.336 0-1.26-.042-2.466-.583-3.338-.725-1.099-1.893-1.61-3.687-1.61-2.764 0-4.024 1.702-4.34 2.703l-.065.198.645.387.14-.263c.005-.014.72-1.34 2.459-1.34 1.182 0 2.055.57 2.36 1.48.153.475.153.658.153 1.426v.409c-1.576.492-2.066.589-4.36 1.432Zm4.362 4.515c-.69.494-1.478.595-2.03.595-1.672 0-1.92-1.17-1.92-1.865 0-.89.387-1.649 1.123-2.023.531-.266 1.113-.553 2.827-1.067v4.36ZM28.248 24.724c1.306.424 2.576.607 4.247.607 1.869 0 6.215-.503 6.215-5.167 0-2.754-1.564-3.798-3.225-4.906l-1.95-1.291c-1.699-1.123-2.475-1.637-2.475-3.152 0-1.103.332-2.574 3.19-2.574 1.215 0 2.364.246 2.883.765.377.38.576.873.623 1.556l.016.253h.653l-.02-.403c-.022-.54-.012-1.065-.012-1.667 0-.761.019-1.464.019-1.47l.008-.23-.232-.041c-.071-.01-1.777-.3-3.992-.3-5.395 0-5.812 3.622-5.812 4.73 0 2.268 1.089 3.405 3.228 4.82l1.54 1.027.232.16c1.458.982 2.514 1.694 2.514 3.4 0 1.995-1.141 2.922-3.595 2.922-1.17 0-2.43-.37-2.977-.989-.358-.402-.55-.973-.584-1.553l-.013-.27-.76-.001.037.644c.027.398.054.886.054 2.133v.934l.188.063ZM48.794 13.973V12.38h-4.381V9.484h-.562l-.29.493c-.015.022-.87 1.643-2.108 2.602-.35.27-.651.493-1.442.82l-.167.07v.504h1.7l-.01.897a462.77 462.77 0 0 0-.04 5.618c0 .747 0 1.988.203 2.621.487 1.59 1.592 2.299 3.582 2.299 2.338 0 3.33-1.294 3.376-1.345l.112-.124-.226-.526-.265.137c-.006.008-.688.35-1.576.35-1.912 0-2.287-1.15-2.287-3.17v-6.756h4.38v-.001ZM72.668 21.921c-.03.856-.055 1.844-.471 2.263-.223.221-.569.362-1.068.44l-.231.029v.596l.297-.028c1.148-.11 1.97-.11 2.922-.11.832 0 1.629.045 2.554.092l.638.033v-.601l-.254-.019c-.37-.023-.795-.175-.995-.361-.4-.372-.482-.97-.482-3.093v-3.756c0-.628-.043-1.814-.168-2.301-.43-1.968-1.944-3.05-4.266-3.05a6.31 6.31 0 0 0-3.73 1.235v-1.02l-.252-.148-.148.066c-.157.074-.597.337-1.354.457-.99.193-1.928.244-2.325.244-.082 0-.145 0-.196-.007l-.29-.021v.734l.241.027c.032.001.069.006.106.008.311.021.893.061 1.156.441.23.343.254 1.023.254 2.605v3.677c0 2.193-.023 3.29-.422 3.734-.38.428-.925.514-1.14.532l-.247.018v.613l.288-.029c1.153-.107 2.024-.107 2.957-.107.806 0 1.582.042 2.472.087l.686.036v-.601l-.253-.018c-.373-.025-.792-.177-.995-.363-.397-.37-.483-.968-.483-3.092v-6.757c.54-.279 1.26-.541 2.41-.541 1.67 0 2.537.774 2.73 2.437.106.984.106 1.982.106 2.943 0 .74 0 1.75-.023 2.231a6.603 6.603 0 0 0-.024.445ZM84.156 6.865c.34-.343.893-.464 1.297-.464.97 0 1.679.427 2.168 1.518l.068.161.308-.004 1.275-1.774-.037-.272-.1-.08c-.695-.564-1.886-.981-3.14-.981-2.919 0-4.655 1.347-5.165 4.003-.154.799-.188 2.271-.191 3.41-.33.26-.78.498-1.509.798l-.167.073v.72h1.676v6.378c0 2.193-.018 3.277-.418 3.723-.38.43-.923.514-1.143.528l-.25.022v.625l.297-.03c1.151-.107 2.237-.107 3.19-.107.762 0 1.815.034 3.232.108l.285.017v-.688h-.272c-.322 0-1.418-.04-1.774-.581-.227-.333-.282-1.158-.282-2.857v-7.137h2.868v-1.592h-2.868V9.894c0-1.644.095-2.475.652-3.029ZM93.63 25.468c4.83 0 6.545-3.71 6.545-6.895 0-4.095-2.346-6.542-6.274-6.542-4.831 0-6.542 3.713-6.542 6.897 0 4.096 2.347 6.54 6.271 6.54Zm-1.659-11.365c.448-.388 1.062-.584 1.82-.584 3.167 0 3.327 4.325 3.327 5.193 0 2.244-.522 3.823-1.554 4.688-.455.387-1.07.584-1.823.584-3.17 0-3.328-4.327-3.328-5.191.003-2.245.524-3.825 1.558-4.69ZM107.503 14.216c1.168 0 1.771.563 2.071 1.034l.082.124h.521l1.084-1.982v-.405l-.088-.084c-.53-.474-1.258-.715-2.155-.715-1.379 0-2.358.617-2.975 1.197v-1.117l-.227-.12-.149.068c-.217.103-.753.264-1.377.367-.991.194-1.927.244-2.326.244-.081 0-.164 0-.211-.006l-.276-.008v.78l.252.026c.026.002.062.007.099.008.313.022.893.062 1.156.442.229.343.248 1.022.248 2.604v3.677c0 2.193-.016 3.25-.416 3.695-.375.43-.925.516-1.141.531l-.253.02v.652l.299-.03c1.149-.107 2.231-.107 3.189-.107.757 0 1.814.034 3.23.108l.285.017v-.714h-.268c-.326 0-1.413-.042-1.777-.58-.222-.332-.278-1.133-.278-2.83v-6.484c.406-.279.866-.412 1.401-.412ZM125.5 24.101c-.305-.025-.865-.086-1.13-.471-.228-.31-.249-1.28-.249-2.85V10.295c0-1.702.011-3.967.097-5.029l.011-.125-.22-.133-.129.05c-.262.096-.765.208-1.272.29a26.678 26.678 0 0 1-2.756.364h-.272l-.056.575.245.024c.028.003.062.005.102.007.306.024.871.067 1.131.442.228.343.25 1.2.25 2.804v2.733a12.702 12.702 0 0 0-2.513-.244c-2.823 0-5.062 1.337-6.138 3.671-.458 1.007-.703 2.204-.703 3.462 0 3.797 2.284 6.246 5.815 6.246 1.691 0 2.956-.736 3.595-1.208v1.087l.345.115.116-.052c.228-.104.686-.195 1.313-.297 1.089-.186 2.21-.264 2.498-.264h.27v-.691l-.244-.01a.998.998 0 0 0-.106-.01Zm-4.249-1.032c-.738.459-1.588.527-2.04.527h-.118c-3.735 0-4.141-3.328-4.141-4.76 0-3.527 1.224-5.244 3.731-5.244 1.578 0 2.358.654 2.568.863v8.614Z" fill="#1E1E1E"/></svg>