<svg width="74" height="30" fill="none" xmlns="http://www.w3.org/2000/svg"><path fill-rule="evenodd" clip-rule="evenodd" d="M67.954 13.944h-2.872V2.62h2.704v1.268c.338-.76 1.183-1.435 2.281-1.52 1.86-.084 3.127 1.014 3.127 3.379v8.196h-2.962V5.407c0-1.014 0-1.859-.683-2.027-.254-.084-.684 0-1.015.252-.422.423-.592.93-.592 1.775v8.534l.013.003ZM19.112 3.38c-.683-.593-1.52-1.015-2.536-1.015s-1.774.423-2.535 1.015c-1.184 1.014-1.944 2.873-1.944 4.9 0 2.113.759 3.887 1.944 4.901.76.593 1.521 1.015 2.535 1.015 1.014 0 1.859-.422 2.536-1.015 1.269-1.014 1.945-2.789 1.945-4.9 0-2.028-.684-3.888-1.945-4.901Zm-1.098 4.9c0 2.113 0 3.803-.338 4.648-.253.422-.502.684-1.099.684-.5 0-.844-.254-1.014-.684-.423-.845-.423-2.536-.423-4.648 0-2.027 0-3.802.423-4.648.17-.421.501-.683 1.014-.683.593 0 .846.254 1.1.683.422.846.338 2.62.338 4.648Zm30.588 9.973v3.041h-.59c-.339-1.266-.846-2.36-2.198-2.45-.845-.084-1.605.423-1.69 1.183-.086.76.169 1.435 1.69 2.281 1.944 1.1 3.465 1.606 3.465 3.887 0 2.45-2.113 3.633-3.887 3.633h-3.38v-4.225h.593c.423 2.197 1.099 3.549 2.703 3.633 1.015 0 1.774-.592 1.774-1.69 0-1.097-.683-1.775-2.281-2.703-1.774-1.099-2.873-1.774-2.873-3.296 0-2.028 1.437-3.297 3.718-3.297h2.962l-.006.003Zm3.72-4.31V5.747c0-2.367-1.27-3.465-3.128-3.38-1.268.084-2.027.93-2.366 1.606-.422-1.184-1.352-1.69-2.704-1.606-1.097.084-1.944.761-2.281 1.521V2.62h-2.62v11.316h2.872V5.41c0-.845.084-1.351.592-1.774.34-.253.676-.338.93-.253.683.169.683 1.014.683 2.027v8.534h2.86v-8.62c0-.761.168-1.269.592-1.69.337-.254.683-.338.928-.254.684.17.76 1.015.76 2.028v8.528h2.873l.008.007ZM23.007.253h2.962V13.94h-2.962V.253Zm13.428 13.69V.255h-2.962v3.211c-.253-.592-.846-1.014-1.69-1.014-2.113 0-3.803 2.197-3.887 5.576-.083 2.282.676 6.084 3.633 6.084 1.183 0 1.86-.684 2.113-1.269v1.1h2.789l.004.002ZM32.97 3.55c.592.846.592 2.873.592 4.478 0 1.69.084 3.887-.592 4.817-.254.338-.501.5-.929.5-.592 0-.93-.683-1.098-1.773-.085-1.015-.085-2.282-.085-3.633 0-2.282.17-4.817 1.268-4.817.423 0 .593.17.845.423l-.001.005Zm28.14-.592c.759.423 1.268 1.099 1.268 2.62v8.366h-2.79v-1.269c-.337.93-1.267 1.52-2.536 1.52-1.014 0-2.788-.5-2.788-3.126 0-2.45 1.605-2.962 3.38-3.717 1.605-.684 1.773-.761 1.773-1.436V4.057c0-.76-.421-1.098-1.268-1.098-.338.083-.929.253-.929.683-.085.502.501.502.593 1.269.083 1.183-.846 1.604-1.69 1.52-.593 0-1.269-.338-1.352-1.267-.084-1.52 1.605-2.788 3.967-2.788 1.098 0 1.774.253 2.366.592l.005-.01ZM59.42 7.183l-.93.592c-.928.593-1.098 1.352-1.182 2.197-.084.684-.084 1.269 0 2.282.083.929.676 1.099 1.183.929.592-.254.929-1.352.929-2.537V7.181v.002ZM19.282 18.76c.762.501 1.183 1.099 1.183 2.62v8.451h-2.704v-1.268c-.338.845-1.266 1.436-2.536 1.436-1.098 0-2.789-.423-2.789-3.042 0-2.45 1.605-2.962 3.296-3.718 1.69-.755 1.858-.845 1.858-1.435v-1.86c0-.846-.423-1.183-1.267-1.099-.339 0-.93.17-.93.593-.084.592.5.592.592 1.351.085 1.1-.845 1.521-1.69 1.521-.592-.083-1.268-.421-1.352-1.351-.083-1.436 1.606-2.704 3.967-2.704 1.099 0 1.774.17 2.366.501l.006.004Zm-1.69 4.225-.929.592c-.929.593-1.098 1.352-1.183 2.197-.084.676-.084 1.352 0 2.282 0 1.014.592 1.182 1.099.929.676-.254 1.014-1.267 1.014-2.535v-3.465h-.001Zm22.14-1.352c0-2.366-1.269-3.549-3.127-3.38-.929.084-1.69.502-2.113 1.1v-3.297h-2.871v7.775c0 2.873-2.028 5.577-4.056 5.492-1.435 0-1.775-1.098-1.944-2.281-.254-1.69-.254-3.633-.085-5.746.17-1.352.501-2.45 1.521-2.45.761 0 .845.5.501.844-.338.423-.845.846-.592 1.775.253 1.015 1.858 1.183 2.62.423.592-.676.501-1.775.084-2.45-.502-.846-1.352-1.183-2.62-1.183-1.606 0-4.648 1.435-4.648 6 0 4.9 3.126 5.745 4.9 5.745 2.028 0 3.803-1.775 4.31-3.211v3.043h2.872v-8.535c0-.846.17-1.352.593-1.775.339-.253.76-.338 1.015-.253.675.169.675 1.015.675 2.028v8.534h2.962v-8.196l.003-.002ZM10.155 0v4.816h-.592C9.062 2.45 7.958.676 6.436.592c-1.014-.084-1.604.5-2.112 1.351-.502 1.015-.761 3.127-.761 5.661 0 2.367.085 4.141.338 5.408.169.592.593 1.52 1.69 1.52.592 0 1.015-.168 1.268-.5.423-.502.502-1.521.502-2.197V9.554c0-.845-.254-1.352-.676-1.606-.338-.169-.846-.169-1.098-.253v-.593h4.73v12.076h-.591c-.251-.92-.42-1.597-.843-2.356-.423-.76-1.184-1.605-2.451-1.605-1.352-.085-2.367.761-2.367 2.028 0 1.69 1.015 2.113 2.873 3.127 1.775 1.014 4.056 1.859 4.056 4.817 0 2.873-2.45 4.648-5.239 4.648h-4.48v-5.825h.593c.761 4.393 2.62 5.154 3.887 5.154 1.606 0 2.36-1.015 2.36-2.45-.083-1.86-1.355-2.537-3.126-3.465-2.535-1.436-3.718-2.113-3.718-4.48.084-2.027 1.69-3.296 3.465-3.802-3.718-.423-4.817-3.803-4.731-7.432C.005 3.904 2.117.016 6.257.016h3.887L10.155 0Z" fill="#1E1E1E"/></svg>