<svg width="11" height="9" viewBox="0 0 11 9" fill="none" xmlns="http://www.w3.org/2000/svg" class="shrink-0"><g clip-path="url(#clip0_14914_125787)"><path fill-rule="evenodd" clip-rule="evenodd" d="M10.7898 1.37523C9.17369 2.13925 8.36567 3.03696 8.36567 4.06839C9.05448 4.14479 9.62407 4.41538 10.0745 4.88016C10.5248 5.34493 10.75 5.88292 10.75 6.49414C10.75 7.14356 10.5315 7.6911 10.0943 8.13678C9.65719 8.58245 9.10747 8.80529 8.44515 8.80529C7.70335 8.80529 7.06091 8.5156 6.51781 7.93622C5.9747 7.35684 5.70315 6.65331 5.70315 5.82563C5.70315 3.34256 7.14699 1.4007 10.0347 0L10.7898 1.37523ZM5.0866 1.37523C3.45729 2.13925 2.64265 3.03696 2.64265 4.06839C3.34471 4.14479 3.92092 4.41538 4.37129 4.88016C4.82167 5.34493 5.04686 5.88292 5.04686 6.49414C5.04686 7.14356 4.82498 7.6911 4.38123 8.13678C3.93747 8.58245 3.38445 8.80529 2.72212 8.80529C1.98033 8.80529 1.3412 8.5156 0.804716 7.93622C0.268236 7.35684 0 6.65331 0 5.82563C0 3.34256 1.43721 1.4007 4.31169 0L5.0866 1.37523Z" fill="#121212"/></g><defs><clipPath id="clip0_14914_125787"><rect width="10.8373" height="8.80529" fill="white"/></clipPath></defs></svg>