<svg width="101" height="30" fill="none" xmlns="http://www.w3.org/2000/svg"><g clip-path="url(#amazon_svg__a)" fill-rule="evenodd" clip-rule="evenodd" fill="#1E1E1E"><path d="M62.234 23.461c-5.81 4.264-14.234 6.54-21.486 6.54-10.168 0-19.322-3.745-26.248-9.972-.544-.49-.056-1.157.597-.776 7.473 4.33 16.715 6.934 26.26 6.934 6.439 0 13.521-1.326 20.033-4.078.984-.416 1.806.641.844 1.352Z"/><path d="M64.647 20.711c-.74-.945-4.91-.446-6.781-.225-.57.069-.658-.425-.144-.78 3.321-2.327 8.771-1.656 9.407-.876.635.785-.166 6.223-3.287 8.819-.479.398-.936.186-.722-.343.7-1.742 2.272-5.646 1.527-6.595ZM58 3.275V1.013a.56.56 0 0 1 .575-.572h10.173c.327 0 .588.234.588.572V2.95c-.004.325-.279.75-.766 1.422l-5.272 7.492c1.96-.048 4.027.243 5.803 1.24.4.225.51.554.54.88v2.413c0 .33-.366.715-.75.516-3.129-1.634-7.286-1.812-10.747.017-.352.19-.722-.19-.722-.52v-2.293c0-.368.004-.996.374-1.555l6.107-8.719H58.59c-.327 0-.588-.23-.588-.568ZM20.89 17.39h-3.095a.583.583 0 0 1-.553-.524V1.054a.58.58 0 0 1 .596-.568h2.886c.3.013.54.243.562.529v2.067h.057c.753-1.998 2.167-2.93 4.074-2.93 1.937 0 3.147.932 4.018 2.93.748-1.998 2.45-2.93 4.274-2.93 1.297 0 2.717.533 3.583 1.73.98 1.33.779 3.262.779 4.957l-.004 9.98a.583.583 0 0 1-.597.572h-3.09a.587.587 0 0 1-.558-.572V8.438c0-.668.061-2.332-.087-2.964-.23-1.062-.922-1.36-1.82-1.36-.748 0-1.531.497-1.85 1.295-.317.797-.286 2.132-.286 3.029v8.38a.583.583 0 0 1-.597.572h-3.09a.584.584 0 0 1-.557-.572l-.005-8.38c0-1.764.292-4.36-1.906-4.36-2.225 0-2.138 2.531-2.138 4.36v8.38a.583.583 0 0 1-.596.572M78.09.152c4.592 0 7.078 3.926 7.078 8.918 0 4.823-2.747 8.65-7.078 8.65-4.51 0-6.965-3.926-6.965-8.819 0-4.922 2.486-8.749 6.965-8.749Zm.026 3.229c-2.281 0-2.425 3.094-2.425 5.022 0 1.933-.03 6.058 2.399 6.058 2.398 0 2.511-3.328 2.511-5.356 0-1.335-.056-2.93-.461-4.195-.348-1.1-1.04-1.53-2.024-1.53ZM91.128 17.39h-3.082a.587.587 0 0 1-.557-.572l-.005-15.816a.584.584 0 0 1 .597-.516h2.868c.27.013.492.195.553.442v2.418h.057c.866-2.162 2.08-3.194 4.218-3.194 1.388 0 2.742.499 3.613 1.864.809 1.265.809 3.393.809 4.922v9.954c-.035.277-.291.498-.596.498h-3.104c-.283-.021-.518-.23-.548-.498V8.303c0-1.729.2-4.26-1.937-4.26-.753 0-1.445.503-1.79 1.266-.435.966-.491 1.928-.491 2.994v8.515a.594.594 0 0 1-.605.572M49.885 9.837c0 1.2.03 2.201-.579 3.267-.492.867-1.275 1.4-2.142 1.4-1.188 0-1.884-.902-1.884-2.232 0-2.626 2.363-3.103 4.605-3.103v.668Zm3.121 7.51a.649.649 0 0 1-.731.073c-1.027-.85-1.215-1.244-1.776-2.054-1.698 1.725-2.904 2.24-5.102 2.24-2.607 0-4.631-1.599-4.631-4.8 0-2.501 1.358-4.204 3.3-5.036 1.68-.737 4.026-.867 5.819-1.07v-.4c0-.732.057-1.598-.379-2.231-.374-.568-1.097-.802-1.736-.802-1.18 0-2.23.603-2.486 1.85-.052.278-.257.551-.54.564l-2.999-.32c-.252-.057-.535-.26-.461-.646C41.97 1.092 45.262 0 48.204 0c1.507 0 3.474.399 4.663 1.534 1.506 1.4 1.362 3.267 1.362 5.3v4.801c0 1.443.601 2.076 1.167 2.856.196.277.24.61-.013.819-.631.524-1.754 1.5-2.373 2.045l-.004-.009M9.315 9.837c0 1.2.03 2.201-.58 3.267-.491.867-1.27 1.4-2.14 1.4-1.19 0-1.881-.902-1.881-2.232 0-2.626 2.363-3.103 4.6-3.103v.668Zm3.12 7.51a.649.649 0 0 1-.73.073c-1.028-.85-1.21-1.244-1.777-2.054-1.697 1.725-2.899 2.24-5.101 2.24-2.603 0-4.632-1.599-4.632-4.8 0-2.501 1.363-4.204 3.3-5.036 1.68-.737 4.026-.867 5.82-1.07v-.4c0-.732.056-1.598-.375-2.231-.378-.568-1.1-.802-1.736-.802-1.18 0-2.234.603-2.49 1.85-.053.278-.257.551-.536.564l-3.003-.32C.922 5.303.644 5.1.713 4.714 1.405 1.092 4.692 0 7.634 0c1.507 0 3.474.399 4.662 1.534 1.507 1.4 1.363 3.267 1.363 5.3v4.801c0 1.443.6 2.076 1.166 2.856.2.277.244.61-.008.819-.631.524-1.754 1.5-2.373 2.045l-.008-.009"/></g><defs><clipPath id="amazon_svg__a"><path fill="#fff" transform="translate(.195)" d="M0 0h100v30H0z"/></clipPath></defs></svg>